<mxfile host="drawio-plugin" modified="2021-10-16T13:16:26.140Z" agent="5.0 (Windows NT 6.2; Win64; x64) AppleWebKit/537.36 (KHTML, like Gecko) Chrome/89.0.4389.114 Safari/537.36" version="14.7.4" etag="PevMvQo1NFYjOtBTIeus" type="embed"><diagram id="QIXH_Tno0p9cjy9JDo72" name="Page-1"><mxGraphModel dx="1353" dy="395" grid="1" gridSize="10" guides="1" tooltips="1" connect="1" arrows="1" fold="1" page="1" pageScale="1" pageWidth="850" pageHeight="1100" math="0" shadow="0"><root><mxCell id="0"/><mxCell id="1" parent="0"/><mxCell id="2" value="" style="shape=lineEllipse;line=vertical;perimeter=ellipsePerimeter;whiteSpace=wrap;html=1;backgroundOutline=1;fillColor=#e1d5e7;strokeColor=#9673a6;" vertex="1" parent="1"><mxGeometry x="350" y="130" width="80" height="80" as="geometry"/></mxCell><mxCell id="3" value="" style="shape=singleArrow;whiteSpace=wrap;html=1;fillColor=#f8cecc;strokeColor=#b85450;" vertex="1" parent="1"><mxGeometry x="470" y="140" width="100" height="60" as="geometry"/></mxCell><mxCell id="4" value="" style="shape=singleArrow;direction=west;whiteSpace=wrap;html=1;fillColor=#ffe6cc;strokeColor=#d79b00;" vertex="1" parent="1"><mxGeometry x="190" y="140" width="100" height="60" as="geometry"/></mxCell><mxCell id="5" value="USER" style="text;html=1;align=center;verticalAlign=middle;resizable=0;points=[];autosize=1;strokeColor=none;" vertex="1" parent="1"><mxGeometry x="230" y="100" width="50" height="20" as="geometry"/></mxCell><mxCell id="6" value="ADMIN" style="text;html=1;align=center;verticalAlign=middle;resizable=0;points=[];autosize=1;strokeColor=none;" vertex="1" parent="1"><mxGeometry x="490" y="110" width="50" height="20" as="geometry"/></mxCell><mxCell id="7" value="POATE SA:" style="swimlane;" vertex="1" parent="1"><mxGeometry x="120" y="230" width="270" height="200" as="geometry"/></mxCell><mxCell id="8" value="- sa se inregistreze si sa se logheze" style="text;html=1;align=center;verticalAlign=middle;resizable=0;points=[];autosize=1;strokeColor=none;" vertex="1" parent="7"><mxGeometry y="30" width="210" height="20" as="geometry"/></mxCell><mxCell id="9" value="- sa faca o donatie" style="text;html=1;align=center;verticalAlign=middle;resizable=0;points=[];autosize=1;strokeColor=none;" vertex="1" parent="7"><mxGeometry y="70" width="110" height="20" as="geometry"/></mxCell><mxCell id="10" value="- sa faca programare pentru vizita" style="text;html=1;align=center;verticalAlign=middle;resizable=0;points=[];autosize=1;strokeColor=none;" vertex="1" parent="7"><mxGeometry x="-10" y="90" width="200" height="20" as="geometry"/></mxCell><mxCell id="11" value="POATE SA:" style="swimlane;" vertex="1" parent="1"><mxGeometry x="400" y="230" width="300" height="200" as="geometry"/></mxCell><mxCell id="12" value="- sa se logheze" style="text;html=1;align=center;verticalAlign=middle;resizable=0;points=[];autosize=1;strokeColor=none;" vertex="1" parent="11"><mxGeometry x="10" y="30" width="100" height="20" as="geometry"/></mxCell><mxCell id="13" value="- add pet" style="text;html=1;align=center;verticalAlign=middle;resizable=0;points=[];autosize=1;strokeColor=none;" vertex="1" parent="11"><mxGeometry x="10" y="50" width="60" height="20" as="geometry"/></mxCell><mxCell id="14" value="- update pet" style="text;html=1;align=center;verticalAlign=middle;resizable=0;points=[];autosize=1;strokeColor=none;" vertex="1" parent="11"><mxGeometry x="10" y="70" width="80" height="20" as="geometry"/></mxCell><mxCell id="15" value="- delete pet" style="text;html=1;align=center;verticalAlign=middle;resizable=0;points=[];autosize=1;strokeColor=none;" vertex="1" parent="11"><mxGeometry x="5" y="90" width="80" height="20" as="geometry"/></mxCell><mxCell id="16" value="-sa vada donatiile" style="text;html=1;align=center;verticalAlign=middle;resizable=0;points=[];autosize=1;strokeColor=none;" vertex="1" parent="11"><mxGeometry y="130" width="110" height="20" as="geometry"/></mxCell><mxCell id="17" value="- sa vizualizeze animalutele" style="text;html=1;align=center;verticalAlign=middle;resizable=0;points=[];autosize=1;strokeColor=none;" vertex="1" parent="1"><mxGeometry x="120" y="280" width="160" height="20" as="geometry"/></mxCell><mxCell id="18" value="-sa confime programarile" style="text;html=1;align=center;verticalAlign=middle;resizable=0;points=[];autosize=1;strokeColor=none;" vertex="1" parent="1"><mxGeometry x="410" y="340" width="150" height="20" as="geometry"/></mxCell><mxCell id="19" value="- sa adopte - aici pe pg de adoptii&lt;br&gt;&amp;nbsp;vor primii detaliile despre&lt;br&gt;cum vor putea sa adopte;&lt;br&gt;adoptiile se fac in urma viztei;&amp;nbsp;&lt;br&gt;vor completa un formular&amp;nbsp;" style="text;html=1;align=center;verticalAlign=middle;resizable=0;points=[];autosize=1;strokeColor=none;" vertex="1" parent="1"><mxGeometry x="140" y="332" width="190" height="80" as="geometry"/></mxCell></root></mxGraphModel></diagram></mxfile>